HIERARCHY
ROOT hip
{
  OFFSET 0.0 0.0 0.0
  CHANNELS 6 Xposition Yposition Zposition Zrotation Yrotation Xrotation
  JOINT torso
  {
    OFFSET 0.0 0.0 0.0
    CHANNELS 3 Zrotation Xrotation Yrotation
    JOINT neck
    {
      OFFSET -31.42098999999993 328.8025209999999 74.3554680000002
      CHANNELS 3 Zrotation Xrotation Yrotation
      JOINT head
      {
        OFFSET 3.3519900000001144 303.81732099999994 206.53942900000015
        CHANNELS 3 Zrotation Xrotation Yrotation
        End Site
        {
          OFFSET 0.0 0.0 0.0
        }
      }
    }
    JOINT left_collar
    {
      OFFSET -31.42098999999993 328.8025209999999 74.3554680000002
      CHANNELS 3 Zrotation Xrotation Yrotation
      JOINT left_upper_arm
      {
        OFFSET -124.490479 -8.162841999999841 8.226441000000023
        CHANNELS 3 Zrotation Xrotation Yrotation
        JOINT left_forearm
        {
          OFFSET -253.595764 -1.5758060000000569 105.0729980000001
          CHANNELS 3 Zrotation Xrotation Yrotation
          JOINT left_hand
          {
            OFFSET -269.48803699999996 0.1478270000000066 -55.346191999999974
            CHANNELS 3 Zrotation Xrotation Yrotation
            End Site
            {
              OFFSET 0.0 0.0 0.0
            }
          }
        }
      }
    }
    JOINT right_collar
    {
      OFFSET -31.42098999999993 328.8025209999999 74.3554680000002
      CHANNELS 3 Zrotation Xrotation Yrotation
      JOINT right_upper_arm
      {
        OFFSET 162.02484099999998 0.46441600000002836 2.2303470000001653
        CHANNELS 3 Zrotation Xrotation Yrotation
        JOINT right_forearm
        {
          OFFSET 240.01246700000004 -25.835875999999985 121.34179699999959
          CHANNELS 3 Zrotation Xrotation Yrotation
          JOINT right_hand
          {
            OFFSET 252.48539699999992 18.910399999999868 -67.53466800000001
            CHANNELS 3 Zrotation Xrotation Yrotation
            End Site
            {
              OFFSET 0.0 0.0 0.0
            }
          }
        }
      }
    }
  }
}
MOTION
Frames: 14
Frame Time: 0.01
-264.419625528411 207.0924816060328 1350.825924996298 0.6946380302780742 -0.24730029280613394 -3.6839935848275434 0.6239050392593523 -2.1364593869468553 -0.3555972196732157 -3.435357992934276 -5.333580452933283 2.4770410847757196 0.0 0.0 0.0 5.2965120409734725 -0.6352696705488183 8.807486386906296 38.62845982607815 8.081733598585977 21.914284773403057 45.98049838638406 -4.32838980541951 -13.045777515468533 0.0 0.0 0.0 2.141797346738204 -0.165302757068004 6.287178379333559 -36.56321116986531 5.511353768108327 -29.2389257046562 -61.98034817801764 -8.36195378493077 17.569427408841445 0.0 0.0 0.0
-264.8735074750228 207.14056443098227 1350.4723829345858 0.7122037856878858 -0.2478954492766629 -3.6738909266060893 0.6240749439452467 -2.123704978022865 -0.35436361283733386 -3.431904406925532 -5.363046951570416 2.4753596085566163 0.0 0.0 0.0 5.29131114065197 -0.6323937012757901 8.782296305222857 38.64689867819628 8.079512409804597 21.93172225646339 45.994010704654315 -4.34240351594628 -13.016241969166257 0.0 0.0 0.0 2.1353158901659066 -0.16508442678395507 6.297703775908382 -36.564398872886024 5.50204362150784 -29.260310548763922 -61.9505649877093 -8.370022540516667 17.545828814494705 0.0 0.0 0.0
-265.3406186706491 207.19192683058142 1350.106046821865 0.7298766954630244 -0.24733763979716267 -3.6631016258431046 0.6237103149903949 -2.1110095155144712 -0.3530053923844029 -3.4285122733674216 -5.393011528647391 2.4737330424476065 0.0 0.0 0.0 5.286129045687164 -0.6296659949446879 8.75840981046169 38.666422927196095 8.07722731900351 21.949988757280288 46.00814714417017 -4.35661168105606 -12.986425630789084 0.0 0.0 0.0 2.128707275364262 -0.1648769594186281 6.309195598562837 -36.56480656428993 5.492368003422164 -29.282072145516867 -61.920144977225746 -8.378965504633197 17.52032300786088 0.0 0.0 0.0
-265.82579426143053 207.2463128882703 1349.7218958852336 0.7478891109806057 -0.24520817794168423 -3.651461966580233 0.6226900999146759 -2.098482271649177 -0.35150413111961026 -3.4253145730802963 -5.42360937351096 2.4722586088444305 0.0 0.0 0.0 5.280986676245898 -0.6271608088024766 8.736491149991048 38.68724420735236 8.074865364610323 21.969247513681086 46.02301422414698 -4.371048056127622 -12.956277531777834 0.0 0.0 0.0 2.122050705547715 -0.16468991017495085 6.321853485387285 -36.56447588746779 5.482382555788732 -29.304111263652906 -61.88900065137724 -8.388929123607769 17.492595429444297 0.0 0.0 0.0
-266.33404492521646 207.30323411726934 1349.3147841336265 0.7665138140198664 -0.24110854183850913 -3.638809049422248 0.6208881377491171 -2.086216917413972 -0.3498386421669797 -3.4224430764427733 -5.454996540796914 2.471033269229923 0.0 0.0 0.0 5.275910284178341 -0.6249476477695962 8.717162729752669 38.70953769495116 8.072401107325703 21.989672079380387 46.038726980846455 -4.385734579551599 -12.925776928581842 0.0 0.0 0.0 2.1154258804664563 -0.1645326033885595 6.335865411709352 -36.5634687635035 5.472160327009526 -29.32630118608745 -61.85706767389395 -8.400048190358193 17.46235934859686 0.0 0.0 0.0
-266.87035304546305 207.3619428220985 1348.8796311653416 0.7860598970424397 -0.23467662766374123 -3.6249900951217557 0.618177005019711 -2.074288029175744 -0.3479855624826307 -3.420024965383986 -5.487343865508079 2.4701511885629066 0.0 0.0 0.0 5.270931690588707 -0.6230888622460294 8.700983461705759 38.73342816369462 8.069795660429456 22.011440299987413 46.05540305435011 -4.400677254175641 -12.894941457277055 0.0 0.0 0.0 2.108910911931314 -0.16441381739564187 6.351399130046732 -36.56186827492047 5.461793568849884 -29.34848411037429 -61.82431600043311 -8.412437676240062 17.429374928354914 0.0 0.0 0.0
-267.4394624820886 207.42141275504892 1348.4116149235726 0.806867688611501 -0.2256025888072462 -3.6098728320792053 0.6144327870855806 -2.062748679373121 -0.34592026800758613 -3.418179986213619 -5.520829703714983 2.4697015442531964 0.0 0.0 0.0 5.266088255730835 -0.6216375391776132 8.68842967418899 38.75897728781484 8.066996660802573 22.03472658300505 46.07315599026648 -4.415862612511683 -12.863833667963181 0.0 0.0 0.0 2.1025805170954777 -0.16434148950119937 6.368593481636176 -36.55977979748215 5.451395420038172 -29.370467931485756 -61.790760387558365 -8.426184147141159 17.393469083235328 0.0 0.0 0.0
-268.04566927457415 207.4803285457973 1347.9063592228824 0.829302879323959 -0.21364375760872562 -3.5933567293797757 0.6095406476388612 -2.0516291788350234 -0.3436180968282941 -3.4170182340759303 -5.5556317457441216 2.469766757389303 0.0 0.0 0.0 5.261422607740133 -0.6206357648952507 8.679879292132512 38.7861727992691 8.06393926112313 22.059692642050255 46.092087803040194 -4.431254975506731 -12.832565452223703 0.0 0.0 0.0 2.0965046075333698 -0.16432245522622022 6.387549907042572 -36.55733230053421 5.441101388516148 -29.39202356301153 -61.75646992613897 -8.44133706170069 17.354555476533694 0.0 0.0 0.0
-268.69262061446943 207.5370851040925 1347.360108933144 0.8537500400369843 -0.19863816784597102 -3.575384775917975 0.6034009932253602 -2.040936947142174 -0.34105582921805677 -3.416638618357135 -5.591918248718101 2.4704211898675075 0.0 0.0 0.0 5.256982171172427 -0.6201133136805018 8.675599781328364 38.81492004223596 8.060548141824265 22.08647707785097 46.112280837462976 -4.446794694035794 -12.80129992576601 0.0 0.0 0.0 2.0907473637825 -0.16436223506947742 6.408324544130861 -36.55467966882072 5.4310705071230325 -29.41288300094896 -61.72157630838357 -8.457900285173277 17.31265394117457 0.0 0.0 0.0
-269.3831291824317 207.5897978324925 1346.7698860441672 0.8806057486428546 -0.18051621620434283 -3.555955454928913 0.5959359645959735 -2.0306574226963185 -0.3382133510902014 -3.4171280131143305 -5.629839110937511 2.4717303208079566 0.0 0.0 0.0 5.2528185510812655 -0.6200867941638901 8.675740161794804 38.84503638249358 8.05674046688705 22.115184302811787 46.13378898368473 -4.462397521618451 -12.77025043307996 0.0 0.0 0.0 2.0853668399627368 -0.164464879735186 6.430921347252021 -36.552001850502705 5.42148600664169 -29.432738379728512 -61.686280567339914 -8.47582417200139 17.267908563480297 0.0 0.0 0.0
-270.11900943392305 207.6363240450773 1346.1336204747965 0.9102715556625339 -0.15931003345422892 -3.535134527541978 0.5870959304178148 -2.0207558765270006 -0.33507540875152925 -3.4185610553788863 -5.669517251801272 2.4737503874135 0.0 0.0 0.0 5.248986843741853 -0.620559267272362 8.680327235241526 38.87624882248653 8.05242964259341 22.145873415998164 46.1566283275061 -4.477955209524631 -12.73967648857514 0.0 0.0 0.0 2.0804150837914213 -0.16463288102969992 6.455286678943752 -36.549505596211965 5.412555335827563 -29.451242283645122 -61.65085804341895 -8.494998575098405 17.220603643832273 0.0 0.0 0.0
-270.90094161059676 207.67429548260273 1345.4502504550792 0.9431470218804221 -0.13516018910931932 -3.5130662189359887 0.5768656148676878 -2.0111799581990626 -0.3316333482728448 -3.4210005161064507 -5.711040762301865 2.476528448477037 0.0 0.0 0.0 5.2455449571585255 -0.6215203342167618 8.689266037575281 38.90819504451978 8.047529683947937 22.178547688267347 46.18076733438231 -4.493337347595203 -12.709876639893302 0.0 0.0 0.0 2.0759386921452063 -0.16486715090532078 6.481305812483018 -36.547424510189856 5.40450936118272 -29.468009549067183 -61.61566136825036 -8.515247123389964 17.171176765336302 0.0 0.0 0.0
-271.7283681721365 207.70116126808975 1344.7197885727774 0.9796230510413132 -0.10831942846484917 -3.489983391932299 0.5652694665139169 -2.001862776950464 -0.32788672405417085 -3.424498134360097 -5.754456254447705 2.4801028036601798 0.0 0.0 0.0 5.24255302788609 -0.6229466802884283 8.702344413188053 38.94042795559692 8.04195995164184 22.213145319059578 46.20611668640523 -4.508394399771905 -12.681178427233506 0.0 0.0 0.0 2.071979667379416 -0.1651670666030172 6.508801745568391 -36.54601809178921 5.397600594912839 -29.482620736609086 -61.58112133499079 -8.536323068100682 17.12022827589634 0.0 0.0 0.0
-272.59942609043475 207.71424009569583 1343.943351035664 1.0200757182627247 -0.07915323747263406 -3.466216289262127 0.5523758771134606 -1.992726302563985 -0.32384465928174 -3.4290957775901667 -5.799763773691274 2.4845036805098046 0.0 0.0 0.0 5.240073012666165 -0.6248030493006296 8.719241507085783 38.97242364339311 8.035649996317423 22.24953207409694 46.23251895615389 -4.522961805822716 -12.653925818715559 0.0 0.0 0.0 2.0685764118925833 -0.16553057665010923 6.537536661115703 -36.54556942461914 5.392100325731728 -29.494627382920424 -61.54774563968016 -8.557906939635702 17.068526608172032 0.0 0.0 0.0
